<svg width="1021" height="122" viewBox="0 0 1021 122" fill="none" xmlns="http://www.w3.org/2000/svg">
<path fill-rule="evenodd" clip-rule="evenodd" d="M469.223 51.8384C308.94 83.6082 131.719 55.8138 0 19.5796V-300C113.495 -213.053 326.148 -96.8715 608.387 -67.6816C857.76 -41.8908 974.323 -19.527 1021 -5.02591V53.8783C923.004 32.8325 696.258 6.83749 469.223 51.8384Z" fill="white"/>
<path fill-rule="evenodd" clip-rule="evenodd" d="M482.808 96.4448C319.914 139.697 134.992 120.86 0 91.5466V-219.5C120.505 -140.786 336.714 -42.5889 614.062 -31.7129C850.276 -22.4499 968.452 -8.69177 1021 2.48358V61.506C916.106 47.7092 697.503 39.4377 482.808 96.4448Z" fill="white" fill-opacity="0.35"/>
<path fill-rule="evenodd" clip-rule="evenodd" d="M452.225 75.6801C299.386 108.482 130.189 87.0222 0 55.1949V-252.619C119.197 -169.944 324.333 -69.2273 589.492 -46.0153C881.041 -20.4931 991.551 3.20798 1021 16.4567V58.1834L1017.56 71.8904C928.053 51.9188 689.683 24.7166 452.225 75.6801Z" fill="white" fill-opacity="0.59"/>
</svg>
