<svg width="1122" height="436" viewBox="0 0 1122 436" fill="none" xmlns="http://www.w3.org/2000/svg">
<path fill-rule="evenodd" clip-rule="evenodd" d="M573.971 48.4353C756.307 -14.5956 970.259 -5.71576 1122 17.6875V352.269C982.499 276.497 740.53 189.219 440.433 199.454C192.45 207.912 62.1575 203.211 0 195.784V130.695C120.359 136.005 351.594 125.308 573.971 48.4353Z" fill="white" fill-opacity="0.35"/>
<path fill-rule="evenodd" clip-rule="evenodd" d="M-3.05176e-05 182.317C44.2014 194.133 171.891 208.991 468.511 213.152C754.549 217.165 983.632 307.043 1122 386.784V57.4927C974.735 31.1793 779.98 18.7409 609.159 68.732C361.25 141.283 106.515 133.657 -3.05176e-05 119.777V182.317Z" fill="white" fill-opacity="0.59"/>
<path fill-rule="evenodd" clip-rule="evenodd" d="M-3.05176e-05 204.642C56.828 216.464 186.817 230.595 449.545 238.419C751.2 247.401 987.972 350.937 1122 435.698V96.3949C973.45 65.7098 770.583 47.1286 592.449 96.2298C356.157 161.362 114.854 154.216 -3.05176e-05 140.026V204.642Z" fill="white"/>
</svg>
